<?xml version="1.0" encoding="utf-8"?>
<!-- Generator: Adobe Illustrator 17.1.0, SVG Export Plug-In . SVG Version: 6.00 Build 0)  -->
<!DOCTYPE svg PUBLIC "-//W3C//DTD SVG 1.1//EN" "http://www.w3.org/Graphics/SVG/1.1/DTD/svg11.dtd">
<svg version="1.1" id="Layer_1" xmlns="http://www.w3.org/2000/svg" xmlns:xlink="http://www.w3.org/1999/xlink" x="0px" y="0px"
	 viewBox="0 0 2481 2073" enable-background="new 0 0 2481 2073" xml:space="preserve">
<title>Layer 1</title>
<path id="svg_2" fill="#FF1414" d="M730.9,1828.3C692.2,1638,623.8,1479.6,541,1332.9c-61.4-108.9-132.5-209.4-198.4-314.9
	c-22-35.2-40.9-72.5-62-109.1c-42.2-73.1-76.4-157.9-74.3-267.9c2.1-107.5,33.2-193.7,78-264.2c73.7-115.9,197.2-211,362.9-236
	c135.5-20.4,262.5,14.1,352.5,66.7c73.6,43,130.6,100.5,173.9,168.3c45.2,70.7,76.4,154.3,79,263.2c1.3,55.8-7.8,107.5-20.7,150.4
	c-13,43.4-34,79.7-52.6,118.5c-36.4,75.7-82.1,145-127.9,214.3C915.1,1328.9,787,1539.6,730.9,1828.3z"/>
<circle id="svg_4" fill="#FFFFFF" cx="729.5" cy="639.7" r="183.3"/>
</svg>
